<svg width="141" height="32" viewBox="0 0 141 32" fill="none" xmlns="http://www.w3.org/2000/svg">
<rect width="32" height="32" rx="7.7193" fill="#EB3F12"/>
<rect opacity="0.02" width="32" height="32" rx="7.7193" fill="url(#paint0_linear_410_2167)"/>
<rect x="2.24582" y="2.24558" width="27.5088" height="27.5088" rx="6.17544" stroke="#AA2214" stroke-width="0.280702"/>
<mask id="path-4-outside-1_410_2167" maskUnits="userSpaceOnUse" x="5.45654" y="5.59644" width="21" height="20" fill="black">
<rect fill="white" x="5.45654" y="5.59644" width="21" height="20"/>
<path fill-rule="evenodd" clip-rule="evenodd" d="M9.68215 8.62246C10.9781 7.32522 12.7357 6.59644 14.5684 6.59644H17.5728C19.4055 6.59644 21.1631 7.32522 22.459 8.62246C23.7549 9.91971 24.483 11.6791 24.483 13.5137V14.1369C24.8483 14.3481 25.1517 14.6518 25.3626 15.0175C25.5736 15.3833 25.6846 15.7982 25.6846 16.2205C25.6846 16.6428 25.5736 17.0577 25.3626 17.4235C25.1517 17.7892 24.8483 18.0929 24.483 18.3041V20.1303C24.483 21.0077 24.1348 21.8492 23.515 22.4696C23.322 22.6627 23.1076 22.8296 22.8774 22.9677V23.0877C22.8774 24.2891 21.9034 25.2631 20.702 25.2631C19.62 25.2631 18.7225 24.4732 18.5547 23.4385H13.5861C13.4183 24.4732 12.5208 25.2631 11.4388 25.2631C10.2374 25.2631 9.26338 24.2891 9.26338 23.0877V22.9675C9.03331 22.8294 8.81905 22.6626 8.62618 22.4696C8.00639 21.8492 7.6582 21.0077 7.6582 20.1303V18.3041C7.29285 18.0929 6.98946 17.7892 6.77853 17.4235C6.56759 17.0577 6.45654 16.6428 6.45654 16.2205C6.45654 15.7982 6.56759 15.3833 6.77853 15.0175C6.98946 14.6518 7.29285 14.3481 7.6582 14.1369V13.5137C7.6582 11.6791 8.38624 9.91971 9.68215 8.62246ZM9.4661 13.7387C9.4661 10.7243 11.9098 8.28064 14.9242 8.28064H17.2166C20.231 8.28064 22.6747 10.7243 22.6747 13.7387V14.1754H9.4661V13.7387ZM20.1825 19.4105C20.0801 19.6212 19.78 19.6212 19.6776 19.4105L19.1794 18.3859L9.40373 18.3859V19.4064C9.40373 20.7031 10.4549 21.7543 11.7516 21.7543H20.2488C21.5455 21.7543 22.5967 20.7031 22.5967 19.4064V18.3859H20.6807L20.1825 19.4105Z"/>
</mask>
<path fill-rule="evenodd" clip-rule="evenodd" d="M9.68215 8.62246C10.9781 7.32522 12.7357 6.59644 14.5684 6.59644H17.5728C19.4055 6.59644 21.1631 7.32522 22.459 8.62246C23.7549 9.91971 24.483 11.6791 24.483 13.5137V14.1369C24.8483 14.3481 25.1517 14.6518 25.3626 15.0175C25.5736 15.3833 25.6846 15.7982 25.6846 16.2205C25.6846 16.6428 25.5736 17.0577 25.3626 17.4235C25.1517 17.7892 24.8483 18.0929 24.483 18.3041V20.1303C24.483 21.0077 24.1348 21.8492 23.515 22.4696C23.322 22.6627 23.1076 22.8296 22.8774 22.9677V23.0877C22.8774 24.2891 21.9034 25.2631 20.702 25.2631C19.62 25.2631 18.7225 24.4732 18.5547 23.4385H13.5861C13.4183 24.4732 12.5208 25.2631 11.4388 25.2631C10.2374 25.2631 9.26338 24.2891 9.26338 23.0877V22.9675C9.03331 22.8294 8.81905 22.6626 8.62618 22.4696C8.00639 21.8492 7.6582 21.0077 7.6582 20.1303V18.3041C7.29285 18.0929 6.98946 17.7892 6.77853 17.4235C6.56759 17.0577 6.45654 16.6428 6.45654 16.2205C6.45654 15.7982 6.56759 15.3833 6.77853 15.0175C6.98946 14.6518 7.29285 14.3481 7.6582 14.1369V13.5137C7.6582 11.6791 8.38624 9.91971 9.68215 8.62246ZM9.4661 13.7387C9.4661 10.7243 11.9098 8.28064 14.9242 8.28064H17.2166C20.231 8.28064 22.6747 10.7243 22.6747 13.7387V14.1754H9.4661V13.7387ZM20.1825 19.4105C20.0801 19.6212 19.78 19.6212 19.6776 19.4105L19.1794 18.3859L9.40373 18.3859V19.4064C9.40373 20.7031 10.4549 21.7543 11.7516 21.7543H20.2488C21.5455 21.7543 22.5967 20.7031 22.5967 19.4064V18.3859H20.6807L20.1825 19.4105Z" fill="white"/>
<path d="M9.68215 8.62246L9.88073 8.82085L9.68215 8.62246ZM22.459 8.62246L22.6576 8.42408L22.6576 8.42408L22.459 8.62246ZM24.483 14.1369H24.2022V14.2989L24.3425 14.3799L24.483 14.1369ZM25.3626 15.0175L25.6058 14.8773L25.6058 14.8773L25.3626 15.0175ZM25.3626 17.4235L25.6058 17.5637L25.6058 17.5637L25.3626 17.4235ZM24.483 18.3041L24.3425 18.0611L24.2022 18.1421V18.3041H24.483ZM23.515 22.4696L23.7136 22.668H23.7136L23.515 22.4696ZM22.8774 22.9677L22.733 22.727L22.5967 22.8088V22.9677H22.8774ZM18.5547 23.4385L18.8318 23.3936L18.7935 23.1578H18.5547V23.4385ZM13.5861 23.4385V23.1578H13.3473L13.309 23.3936L13.5861 23.4385ZM9.26338 22.9675H9.54408V22.8086L9.40785 22.7268L9.26338 22.9675ZM8.62618 22.4696L8.82477 22.2712H8.82476L8.62618 22.4696ZM7.6582 18.3041H7.93891V18.1421L7.79868 18.0611L7.6582 18.3041ZM6.77853 17.4235L6.53536 17.5637H6.53536L6.77853 17.4235ZM6.77853 15.0175L6.53536 14.8773H6.53536L6.77853 15.0175ZM7.6582 14.1369L7.79868 14.3799L7.93891 14.2989V14.1369H7.6582ZM22.6747 14.1754V14.4561H22.9554V14.1754H22.6747ZM9.4661 14.1754H9.1854V14.4561H9.4661V14.1754ZM19.6776 19.4105L19.4252 19.5333L19.6776 19.4105ZM20.1825 19.4105L19.9301 19.2878V19.2878L20.1825 19.4105ZM19.1794 18.3859L19.4319 18.2632L19.3551 18.1052H19.1794V18.3859ZM9.40373 18.3859V18.1052H9.12303V18.3859H9.40373ZM20.2488 21.7543V21.4736V21.7543ZM22.5967 18.3859H22.8774V18.1052H22.5967V18.3859ZM20.6807 18.3859V18.1052H20.505L20.4282 18.2632L20.6807 18.3859ZM14.5684 6.31573C12.6611 6.31573 10.8321 7.07416 9.48356 8.42408L9.88073 8.82085C11.124 7.57628 12.8102 6.87714 14.5684 6.87714V6.31573ZM17.5728 6.31573H14.5684V6.87714H17.5728V6.31573ZM22.6576 8.42408C21.3091 7.07416 19.48 6.31573 17.5728 6.31573V6.87714C19.3309 6.87714 21.0171 7.57628 22.2604 8.82085L22.6576 8.42408ZM24.7637 13.5137C24.7637 11.6048 24.0061 9.77399 22.6576 8.42408L22.2604 8.82085C23.5037 10.0654 24.2022 11.7535 24.2022 13.5137H24.7637ZM24.7637 14.1369V13.5137H24.2022V14.1369H24.7637ZM25.6058 14.8773C25.3703 14.4689 25.0315 14.1297 24.6234 13.8939L24.3425 14.3799C24.6652 14.5664 24.9331 14.8347 25.1195 15.1578L25.6058 14.8773ZM25.9653 16.2205C25.9653 15.749 25.8413 15.2857 25.6058 14.8773L25.1195 15.1578C25.3058 15.4809 25.4039 15.8474 25.4039 16.2205H25.9653ZM25.6058 17.5637C25.8413 17.1553 25.9653 16.692 25.9653 16.2205H25.4039C25.4039 16.5936 25.3058 16.9601 25.1195 17.2832L25.6058 17.5637ZM24.6234 18.5471C25.0315 18.3113 25.3703 17.9721 25.6058 17.5637L25.1195 17.2832C24.9331 17.6063 24.6652 17.8746 24.3425 18.0611L24.6234 18.5471ZM24.7637 20.1303V18.3041H24.2022V20.1303H24.7637ZM23.7136 22.668C24.386 21.9949 24.7637 21.082 24.7637 20.1303H24.2022C24.2022 20.9333 23.8836 21.7034 23.3164 22.2712L23.7136 22.668ZM23.0219 23.2084C23.2716 23.0585 23.5042 22.8775 23.7136 22.668L23.3164 22.2712C23.1398 22.448 22.9436 22.6006 22.733 22.727L23.0219 23.2084ZM23.1581 23.0877V22.9677H22.5967V23.0877H23.1581ZM20.702 25.5438C22.0585 25.5438 23.1581 24.4441 23.1581 23.0877H22.5967C22.5967 24.1341 21.7484 24.9824 20.702 24.9824V25.5438ZM18.2776 23.4835C18.4671 24.6518 19.4801 25.5438 20.702 25.5438V24.9824C19.7599 24.9824 18.9779 24.2945 18.8318 23.3936L18.2776 23.4835ZM13.5861 23.7192H18.5547V23.1578H13.5861V23.7192ZM11.4388 25.5438C12.6607 25.5438 13.6737 24.6518 13.8632 23.4835L13.309 23.3936C13.1629 24.2945 12.3809 24.9824 11.4388 24.9824V25.5438ZM8.98268 23.0877C8.98268 24.4441 10.0823 25.5438 11.4388 25.5438V24.9824C10.3924 24.9824 9.54408 24.1341 9.54408 23.0877H8.98268ZM8.98268 22.9675V23.0877H9.54408V22.9675H8.98268ZM8.42759 22.668C8.63682 22.8774 8.86929 23.0583 9.11891 23.2082L9.40785 22.7268C9.19733 22.6005 9.00128 22.4479 8.82477 22.2712L8.42759 22.668ZM7.3775 20.1303C7.3775 21.082 7.7552 21.9949 8.42759 22.668L8.82476 22.2712C8.25759 21.7034 7.93891 20.9333 7.93891 20.1303H7.3775ZM7.3775 18.3041V20.1303H7.93891V18.3041H7.3775ZM6.53536 17.5637C6.7709 17.9721 7.1097 18.3113 7.51773 18.5471L7.79868 18.0611C7.476 17.8746 7.20802 17.6063 7.02169 17.2832L6.53536 17.5637ZM6.17584 16.2205C6.17584 16.692 6.29983 17.1553 6.53536 17.5637L7.02169 17.2832C6.83535 16.9601 6.73724 16.5936 6.73724 16.2205H6.17584ZM6.53536 14.8773C6.29983 15.2857 6.17584 15.749 6.17584 16.2205H6.73724C6.73724 15.8474 6.83535 15.4809 7.02169 15.1578L6.53536 14.8773ZM7.51773 13.8939C7.1097 14.1297 6.7709 14.4689 6.53536 14.8773L7.02169 15.1578C7.20802 14.8347 7.476 14.5664 7.79868 14.3799L7.51773 13.8939ZM7.3775 13.5137V14.1369H7.93891V13.5137H7.3775ZM9.48356 8.42408C8.13504 9.77399 7.3775 11.6048 7.3775 13.5137H7.93891C7.93891 11.7535 8.63744 10.0654 9.88073 8.82085L9.48356 8.42408ZM14.9242 7.99994C11.7547 7.99994 9.1854 10.5693 9.1854 13.7387H9.7468C9.7468 10.8793 12.0648 8.56134 14.9242 8.56134V7.99994ZM17.2166 7.99994H14.9242V8.56134H17.2166V7.99994ZM22.9554 13.7387C22.9554 10.5693 20.386 7.99994 17.2166 7.99994V8.56134C20.076 8.56134 22.394 10.8793 22.394 13.7387H22.9554ZM22.9554 14.1754V13.7387H22.394V14.1754H22.9554ZM9.4661 14.4561H22.6747V13.8947H9.4661V14.4561ZM9.1854 13.7387V14.1754H9.7468V13.7387H9.1854ZM19.4252 19.5333C19.63 19.9545 20.2301 19.9545 20.4349 19.5333L19.9301 19.2878V19.2878L19.4252 19.5333ZM18.927 18.5086L19.4252 19.5333L19.9301 19.2878L19.4319 18.2632L18.927 18.5086ZM9.40373 18.6666L19.1794 18.6666V18.1052L9.40373 18.1052V18.6666ZM9.68443 19.4064V18.3859H9.12303V19.4064H9.68443ZM11.7516 21.4736C10.6099 21.4736 9.68443 20.5481 9.68443 19.4064H9.12303C9.12303 20.8582 10.2999 22.035 11.7516 22.035V21.4736ZM20.2488 21.4736H11.7516V22.035H20.2488V21.4736ZM22.316 19.4064C22.316 20.5481 21.3905 21.4736 20.2488 21.4736V22.035C21.7005 22.035 22.8774 20.8582 22.8774 19.4064H22.316ZM22.316 18.3859V19.4064H22.8774V18.3859H22.316ZM20.6807 18.6666H22.5967V18.1052H20.6807V18.6666ZM20.4349 19.5333L20.9331 18.5086L20.4282 18.2632L19.9301 19.2878L20.4349 19.5333Z" fill="#AA2214" mask="url(#path-4-outside-1_410_2167)"/>
<rect opacity="0.2" width="32" height="32" rx="7.7193" fill="url(#paint1_linear_410_2167)"/>
<path d="M47.2638 20.8579H41.6812L40.7863 23.5H36.9723L42.3844 8.54213H46.6033L52.0154 23.5H48.1587L47.2638 20.8579ZM46.3263 18.0453L44.4725 12.5692L42.6401 18.0453H46.3263ZM65.403 11.6104V23.5H61.7594V21.8806C61.3901 22.4062 60.8858 22.8324 60.2466 23.1591C59.6215 23.4716 58.9255 23.6278 58.1584 23.6278C57.2493 23.6278 56.4467 23.429 55.7507 23.0312C55.0546 22.6193 54.5148 22.0298 54.1313 21.2627C53.7478 20.4956 53.556 19.5936 53.556 18.5567V11.6104H57.1783V18.0666C57.1783 18.8621 57.3842 19.48 57.7962 19.9203C58.2081 20.3607 58.7621 20.5809 59.4582 20.5809C60.1684 20.5809 60.7295 20.3607 61.1415 19.9203C61.5534 19.48 61.7594 18.8621 61.7594 18.0666V11.6104H65.403ZM74.6468 20.4104V23.5H72.793C71.472 23.5 70.4421 23.1804 69.7034 22.5412C68.9648 21.8877 68.5954 20.8295 68.5954 19.3663V14.6361H67.1465V11.6104H68.5954V8.71259H72.239V11.6104H74.6255V14.6361H72.239V19.409C72.239 19.7641 72.3243 20.0198 72.4947 20.176C72.6652 20.3323 72.9493 20.4104 73.347 20.4104H74.6468ZM82.0884 23.6705C80.9236 23.6705 79.8724 23.4219 78.9349 22.9247C78.0116 22.4275 77.28 21.7173 76.7402 20.7939C76.2146 19.8706 75.9519 18.791 75.9519 17.5552C75.9519 16.3336 76.2217 15.2611 76.7615 14.3378C77.3013 13.4002 78.04 12.6829 78.9775 12.1857C79.9151 11.6885 80.9662 11.44 82.131 11.44C83.2958 11.44 84.347 11.6885 85.2845 12.1857C86.2221 12.6829 86.9607 13.4002 87.5005 14.3378C88.0403 15.2611 88.3102 16.3336 88.3102 17.5552C88.3102 18.7768 88.0332 19.8564 87.4792 20.7939C86.9394 21.7173 86.1937 22.4275 85.2419 22.9247C84.3044 23.4219 83.2532 23.6705 82.0884 23.6705ZM82.0884 20.5169C82.7845 20.5169 83.374 20.2613 83.8569 19.7499C84.3541 19.2385 84.6027 18.5069 84.6027 17.5552C84.6027 16.6035 84.3612 15.8719 83.8782 15.3605C83.4095 14.8492 82.8271 14.5935 82.131 14.5935C81.4208 14.5935 80.8313 14.8492 80.3625 15.3605C79.8937 15.8577 79.6594 16.5893 79.6594 17.5552C79.6594 18.5069 79.8866 19.2385 80.3412 19.7499C80.81 20.2613 81.3924 20.5169 82.0884 20.5169ZM89.6253 15.9998C89.6253 14.5224 89.9449 13.2085 90.5841 12.0579C91.2233 10.8931 92.1112 9.99104 93.2476 9.35181C94.3982 8.69838 95.6979 8.37167 97.1468 8.37167C98.9225 8.37167 100.442 8.84043 101.707 9.77796C102.971 10.7155 103.816 11.9939 104.242 13.6133H100.236C99.9381 12.9883 99.512 12.5124 98.958 12.1857C98.4182 11.859 97.8003 11.6956 97.1042 11.6956C95.982 11.6956 95.0729 12.0863 94.3769 12.8676C93.6808 13.6488 93.3328 14.6929 93.3328 15.9998C93.3328 17.3066 93.6808 18.3507 94.3769 19.132C95.0729 19.9132 95.982 20.3039 97.1042 20.3039C97.8003 20.3039 98.4182 20.1405 98.958 19.8138C99.512 19.4871 99.9381 19.0112 100.236 18.3862H104.242C103.816 20.0056 102.971 21.284 101.707 22.2215C100.442 23.1449 98.9225 23.6065 97.1468 23.6065C95.6979 23.6065 94.3982 23.2869 93.2476 22.6477C92.1112 21.9943 91.2233 21.0923 90.5841 19.9416C89.9449 18.791 89.6253 17.4771 89.6253 15.9998ZM113.782 11.4826C115.146 11.4826 116.239 11.9371 117.063 12.8462C117.887 13.7412 118.299 14.977 118.299 16.5538V23.5H114.677V17.0438C114.677 16.2483 114.471 15.6304 114.059 15.1901C113.647 14.7497 113.093 14.5295 112.397 14.5295C111.701 14.5295 111.147 14.7497 110.735 15.1901C110.323 15.6304 110.117 16.2483 110.117 17.0438V23.5H106.474V7.73244H110.117V13.2085C110.486 12.6829 110.991 12.2638 111.63 11.9513C112.269 11.6388 112.987 11.4826 113.782 11.4826ZM132.039 17.3634C132.039 17.7044 132.018 18.0595 131.975 18.4288H123.729C123.786 19.1675 124.02 19.7357 124.432 20.1334C124.858 20.5169 125.377 20.7087 125.988 20.7087C126.897 20.7087 127.529 20.3252 127.884 19.5581H131.762C131.563 20.3394 131.201 21.0425 130.675 21.6676C130.164 22.2926 129.517 22.7826 128.736 23.1378C127.955 23.4929 127.081 23.6705 126.115 23.6705C124.951 23.6705 123.914 23.4219 123.004 22.9247C122.095 22.4275 121.385 21.7173 120.874 20.7939C120.362 19.8706 120.107 18.791 120.107 17.5552C120.107 16.3194 120.355 15.2398 120.852 14.3165C121.364 13.3931 122.074 12.6829 122.983 12.1857C123.892 11.6885 124.936 11.44 126.115 11.44C127.266 11.44 128.289 11.6814 129.184 12.1644C130.079 12.6474 130.775 13.3363 131.272 14.2312C131.783 15.1261 132.039 16.1702 132.039 17.3634ZM128.31 16.4046C128.31 15.7796 128.097 15.2824 127.671 14.9131C127.245 14.5437 126.712 14.3591 126.073 14.3591C125.462 14.3591 124.943 14.5366 124.517 14.8918C124.105 15.2469 123.85 15.7512 123.75 16.4046H128.31ZM139.927 14.6361H137.967V23.5H134.323V14.6361H133.002V11.6104H134.323V11.2695C134.323 9.80638 134.742 8.69838 135.58 7.94552C136.419 7.17845 137.647 6.79491 139.267 6.79491C139.537 6.79491 139.735 6.80202 139.863 6.81622V9.90581C139.167 9.8632 138.677 9.96263 138.393 10.2041C138.109 10.4456 137.967 10.8789 137.967 11.5039V11.6104H139.927V14.6361Z" fill="#FAFAFA"/>
<defs>
<linearGradient id="paint0_linear_410_2167" x1="16" y1="0" x2="16" y2="32" gradientUnits="userSpaceOnUse">
<stop stop-color="white"/>
<stop offset="1" stop-color="white" stop-opacity="0"/>
</linearGradient>
<linearGradient id="paint1_linear_410_2167" x1="16" y1="0" x2="16" y2="32" gradientUnits="userSpaceOnUse">
<stop stop-color="#FFC092"/>
<stop offset="1" stop-color="white" stop-opacity="0"/>
</linearGradient>
</defs>
</svg>
